<svg xmlns="http://www.w3.org/2000/svg" version="1.2" viewBox="0 0 302 303"><path fill="#e51f1f" fill-rule="evenodd" d="m89.6 6.2 6.6 13.4 6.5 13.4 6.5 13.4 6.5 13.4c2.3 4.8 3.9 7.4 4.5 7.2l6.8-1.7c6-1.4 6.1-1.5 5.7-3.2l-2.1-12.8-2-12.5c-.1-.8 0-1.5.3-1.5.4 0 1 2.1 1.4 4.5l1.1 5.8 1.2 5.8 1.2 5.8 1.4 5.8 2-.1 2-.1 2-.3 2-.3 7.8-1.1.1-5c0-5.8 1.1-4.3 1.2 1.7v3.5h3.7c4.1 0 4 .2 4.7-6.6.4-4.9 5.5-48.6 6-51.9.8-4.9 2.8-2.7 2.6 2.7a3235 3235 0 0 1-4 53.7c-.2 2.3 1.3 3.1 2 1 .7-2.3 11.9-46.6 13.2-52.4.8-3.2 1.7-5.8 2-5.8.4 0 .4.8.2 1.9L179.6 18l-3.1 14.2-2.9 14.1-2.9 14.2c-.2.5 1 1 3.2 1.5a43.2 43.2 0 0 1 13.1 4.2c0 .3-.9.4-2.1.1-24.9-5.5-79.8 10.9-100.3 29.9-16.4 15.2-17.9 33.4-3.4 40.9 1.1.6 2.7 1.8 3.5 2.8 2.6 2.9 3 4.6 15.6 71.1l4.1 21.9c2.5 13.1 3.2 14.2 1.3 2-1.4-8.9-4-27.7-8.7-60.6-5-35.8-5.1-36.1-12-41.3-15-11.8-6.6-28.8 21-42.3a172.2 172.2 0 0 1 64-17.5c2.4-.1-11.1 50.6-10.6 51.1.3.3 10.7 7.2 11.1 7.6 1 .9-25.5 29.9-24.2 30 .4 0 10 22.7 10.2 22.9.2.2-14.7 34.9-17 39.2 3-4 28.4-33.5 28.7-34 .7-1.3-5.8-22.5-5.7-23.2.4-1.4 26.4-32.1 26.9-32.3.2-.1-13.1-15.9-12.7-15.9.1 0 16.7-44.1 18.3-43.8 3.4.8 6.4 1.9 9 3.2 9.6 4.7 13.3 12.6 7.4 23.5a25.7 25.7 0 0 0-3.3 13.5l3.9 18.2 3.9 18.2 4 18.1 4.1 18.2c9.6 42.6 10.4 39.5-10.4 44-6.8 1.6-6.9.9.4 13.8l5.1 9.3 5.2 9.3 5.3 9.3 5.3 9.2 6 10.7c.8 1.7 2.3 4.3 3.2 5.9 1.2 2 1.4 2.8.8 2.8-.6 0-17.9-26.5-21.6-33.2l-14.4-23-1.6-2.3-1.5-2.4-1.4-2.4-1.4-2.5-1.2-1.5-6.2 1.4-6.5 1.6c-.1.1 4 10.7 9.2 23.7 5.1 12.9 9.3 23.8 9.1 24.2 0 .3-1-1.3-2-3.7l-3.4-7.4-3.3-7.4-3.4-7.4-3.3-7.4c-5.2-11.9-6.3-13.8-7.8-13.3l-12.6 3c-16 4-16 3.9-16 5.2 0 .7-.2.8-.4.3-.5-1.2-2.2-1-11.2 1.3l-8.1 2.2-2.5 11-4.8 20.7-3 13.7c-.8 4.2-1.6 6.2-2.3 5.5-.2-.2.7-6.4 2-13.6l4.4-24.5c1.1-6.2 1.9-11.4 1.8-11.6-.2-.1-4.1.7-8.8 1.9l-3.2.8-3.3.7-3.4.3q-1.6.2-3.3.2c-13.1 3.8-17.3-.2-20.8-19.4-1.5-7.7-1.7-8-4-5.2l-12.8 14-12.9 14-12.9 13.9-12.9 13.9c-6.2 6.7-3 1.6 5-7.7L49.6 266l6.5-7.7 6.6-7.7 6.4-7.8 6.5-7.8 6.4-7.8 3.9-4.6-1.1-6.9c-1.6-9.4-1.2-9.2-7.7-3.8l-6 5-6 5-6 5-6 5c-18.9 15.6-18.3 15.2-17.9 14.2l5.8-5.7 5.9-5.6q2.9-2.8 6-5.5L59 224l7.3-6.6 2-1.9 2-1.8 2-1.9 2-1.8c4.2-3.8 7.7-7.1 7.7-7.3 0-.9-4.4-25-4.6-25.2-.2-.2-3.2.9-16.3 5.8a39.5 39.5 0 0 1-5.9 1.8c-.3-.4 8.1-4.4 9.1-4.4l1.2-.4 1.1-.5 1.1-.5 1.1-.6c2.3-1.1 4.9-2.2 5.9-2.4 2-.5 2.5-1.2 2-2.9-.4-1.2-.6-1.2-4.6 0-9.9 2.9-11.1 3.2-11.1 2.7l1.6-.9 1.7-.8 1.7-.8 1.8-.6c8.5-3.1 8.1-2.8 7.5-7.1-.6-5.7 1-5.5-22-3.3-52.2 5-54.4 5.1-52.9 3.8.1-.1 15.6-2.4 34.3-5l36.4-5.1 2.4-.4-1.2-5.8-1.6-8.2c-.7-4-1.5-4.6-8.1-5.6a315.3 315.3 0 0 1-26.3-4.7c-.1-.3 1.2-.3 3 0l5.4.5 5.5.5 5.4.7 5.4.7c7.2 1 7.3 1 4.6-1.7a29.6 29.6 0 0 0-5.4-4.4c-5.9-3.8-8-9.5-6.4-17.3.6-2.4.5-2.4-2.7-3.8l-11.6-5.4L27.9 96l-11.6-5.4-11.6-5.3c-5.3-2.4-6.3-4.7-1.2-2.7L48 100.7c9.4 3.9 8.9 3.9 11.8.2 2.9-3.9 3.3-3.3-6.5-9.4L37 81.1c-4.9-3.2-10.9-6.8-13.2-8.2-2.3-1.4-3.9-2.6-3.5-2.8.7-.2 1.6.3 12.3 6.5 3.2 1.9 6 3.4 6.2 3.4l1 .5 1 .6 1 .6 1 .6a23 23 0 0 0 4 2.4l3.9 2.4 4 2.3 4.1 2.3 4.1 2.1c1.4.8 2.5.9 3 .5l5.3-4.1q2.7-2 5.6-3.8l5.7-3.5 6-3.1c1.7-.6 1.5-1.1-1.9-5.1-4.3-5.3-3.6-5.8 1-.7l4 4.3 2.4-1.2c2.5-1.2 2.5-1.2.2-4.6-2.1-3-.9-2.8 1.7.2l2.3 2.7 2.2-1.1 2-.9 2.1-.9 2-.8 2.1-.8c4-1.4 6-2.4 5.8-3l-1.1-2.7-1.1-2.8-1.1-2.7-1.2-2.7-5.6-13-2.6-6-2.6-6-2.6-6-2.5-6-2.8-6.7-.9-2.2-.9-2.2-1-2.2-1-2.2c-2.7-6-.8-4.5 2.2 1.7zm49.6 218.2.3-.4-.3.4zM266.7 46.5a2860 2860 0 0 1-43.9 42.2l-1.7 1.3-.4-2.4c-.5-2-.3-2.6 1-3.8l11.6-10.1 11.6-10.1 11.5-10.2 11.5-10.3c10-8.6 9.3-6.9-1.2 3.4zm-67 18.5c2.6-3.8 3.4-3.5.9.5-2.2 3.5-2.2 3.5-2.6 3-.3-.2.6-1.7 1.7-3.4zm4.5 3.3c.2.2-.1.8-.5 1.4-.5.5-1 .8-1.2.7-.2-.2 0-.8.5-1.4.5-.6 1-.9 1.2-.7zm43.1 27.6c-.5.5-13.1 7.6-30.1 16.9l-3.5 1.9v-1.5c0-1.4 1.9-2.6 16.1-9.7 14.5-7.2 19.5-9.4 17.5-7.6zm54.4 20c0 1.5 2.4.9-47.2 13.2a785 785 0 0 1-37.3 8.7c-.2-.2-.5-1.7-.7-3.2l-.3-3 21.2-4.2 12.9-2.5 12.9-2.6 12.9-2.6 12.9-2.6c13.3-2.8 12.7-2.7 12.7-1.2zm-61.5 2.4-1.7.7-1.7.7-1.7.6-1.8.6-11.3 4c-5.5 2.1-7 2.2-7 .4 0-.9.6-1.4 1.8-1.7l5.1-1.2 5.2-1.3 5.1-1.4 5.1-1.4c1.1-.3 3.3-.3 2.9 0zm56.1 15.8c4.7 0 1.3 1-5 1.6l-7.2.7-7.1.7-7.2.8-7.1.8a2391 2391 0 0 1-44.2 4.7c-.5 0-.8-.9-.8-2 0-2.4.1-2.4 20.3-3.4l34.3-2.3c11.6-.8 22.4-1.6 24-1.6zm-74.1 31.2c.6 0 23.1 6.2 23.4 6.5 1 .8-1 .6-5.3-.5-5.6-1.5-9.2-1.6-4.6-.2 8.4 2.6 5.5 2.7-4.5.1-10.1-2.5-8.6-1.8-9.1-4-.3-1-.2-1.9.1-1.9zm3.7 24.1c-.5-3.5-1.2-3.7 10.3 3l13.2 7.7 13.1 7.8 13.1 7.8 13.1 7.9c4.5 2.5 11 6.6 10.7 6.9l-11-5.4-10.9-5.5-10.8-5.7L256 208l-7.4-3.9-7.4-3.9-7.3-3.9-7.4-3.9-.6-2.9z"/></svg>